<?xml version="1.0" encoding="UTF-8"?>
<!-- Created with Inkscape (http://www.inkscape.org/) -->
<svg width="284.92" height="126.87" version="1.1" viewBox="0 0 75.385 33.568" xmlns="http://www.w3.org/2000/svg" xmlns:cc="http://creativecommons.org/ns#" xmlns:dc="http://purl.org/dc/elements/1.1/" xmlns:osb="http://www.openswatchbook.org/uri/2009/osb" xmlns:rdf="http://www.w3.org/1999/02/22-rdf-syntax-ns#" xmlns:xlink="http://www.w3.org/1999/xlink">
 <defs>
  <linearGradient id="linearGradient8741-7-4" x1="-430.23" x2="-419.41" y1="117.31" y2="120.1" gradientTransform="matrix(1.3961 0 0 1.3961 800.18 79.642)" gradientUnits="userSpaceOnUse">
   <stop stop-color="#0502a9" offset="0"/>
   <stop stop-color="#094dfc" stop-opacity="0" offset="1"/>
  </linearGradient>
  <linearGradient id="linearGradient8629-0-8" x1="-428.74" x2="-429.62" y1="111.73" y2="127.11" gradientTransform="matrix(1.3961 0 0 1.3961 798.24 81.871)" gradientUnits="userSpaceOnUse">
   <stop stop-color="#0930fc" offset="0"/>
   <stop stop-color="#5017c2" stop-opacity=".95686" offset="1"/>
  </linearGradient>
 </defs>
 <metadata>
  <rdf:RDF>
   <cc:Work rdf:about="">
    <dc:format>image/svg+xml</dc:format>
    <dc:type rdf:resource="http://purl.org/dc/dcmitype/StillImage"/>
    <dc:title/>
   </cc:Work>
  </rdf:RDF>
 </metadata>
 <g transform="translate(-152.98 -229.19)">
  <g>
   <path d="m214.96 235.2c-8.5302-9.2182-26.915-5.2954-35.888-2.9504-3.1939 0.83467-12.756 7.6229-12.781 8.6272 1.4509 2.4606 2.8233 2.2647 2.8233 2.2647z" fill="#2716ef" stroke-opacity="0"/>
   <path d="m205.23 260.07c-4.953 3.7836-23.372 3.4411-30.664-0.18386-7.027-3.4929-7.4722-7.2974-5.2708-8.3981z" fill="#222ed3"/>
   <path d="m228.36 246.58c0.14612 0.29678 0.0886 0.59983-0.0212 0.75324-2.0973 6.129-8.4343 12.538-21.499 12.545-3.3688 7.9e-4 -6.8411 1.1332-10.571 1.0789-20.426-0.29749-25.327-8.3657-27.923-9.665-5.5225-1.8245-4.577-6.7814 0.0227-8.0141 3.6256-1.6689 8.3065-9.3354 28.308-9.8857 8.6272 0.14172 13.501 0.51841 18.166 1.6609 8.6144 2.1097 11.564 8.3201 13.517 11.527z" fill="url(#linearGradient8629-0-8)" style="paint-order:normal"/>
   <path d="m169.1 243.75-15.052-6.5698c-1.2647 2.3835-0.57651 15.604 0.40681 21.353 4.1316-2.0528 14.896-7.7519 14.896-7.7519l6.0454-3.9087z" fill="#111117"/>
  </g>
  <path d="m220.17 243.75c0 1.1834-0.85157 0.28415-2.0349 0.28416-1.1834-1e-5 -2.2504 0.89921-2.2504-0.28416 0-1.1834 0.95931-2.1427 2.1427-2.1427s2.1427 0.95931 2.1427 2.1427z" fill="#120c07" fill-opacity=".95814" style="paint-order:normal"/>
  <g>
   <path d="m212.95 247.69s-7.705-6.6928-9.7103-6.4895c-3.9286 0.39843 0.98751 8.573 2.7682 9.8397 1.7407 1.2383 7.7608-2.2559 7.7608-2.2559z" fill="url(#linearGradient8741-7-4)"/>
   <path d="m194.65 234.36c-1.24 0.01-2.4719 0.0603-3.6813 0.15757-7.3626 0.59236-20.673 7.5966-22.716 9.2906-1.1051 0.91636 2.7147 1.7891 4.8189 3.0077-1.4831 1.6868-5.2821 3.8086-4.2129 4.2432 3.8306 1.5568 27.406 6.8811 28.667-5.954 0.0967-0.98426 2.1268-6.9843 3.4311-7.2526 4.9184-1.0116 12.366 2.141 15.875 5.4145 0-1.553 1.1896-1.2342 2.261-1.1221-0.50639-6.0322-12.456-7.8744-24.442-7.7849zm-5.5746 7.4425c2.5296-5e-3 5.6887-0.57482 5.5739 2.535 0 1.585-4.1141 5.347-7.0673 5.347-2.9532 0-9.8875-0.0466-9.6811-2.7324 0.0688-3.3048 4.933-4.1932 7.824-4.7964 1.0304-0.21499 2.2007-0.35119 3.3506-0.35324z" fill="#0c1122" style="paint-order:normal"/>
   <path d="m166.6 244.47c-2.8528-0.58023-13.061-5.4473-13.061-5.4473-1.1178 1.9763-0.35029 13.154 0.5188 17.92 2.9636-0.84662 7.072-2.7503 12.972-6.6775 2.2715-0.8841 3.6955-2.0867 5.3772-3.2067-1.6352-0.90302-2.4008-1.922-5.8064-2.589z" fill="#fceb09"/>
  </g>
 </g>
</svg>
