<?xml version="1.0" encoding="UTF-8"?>
<!-- Created with Inkscape (http://www.inkscape.org/) -->
<svg width="46.62mm" height="26.686mm" version="1.1" viewBox="0 0 46.62 26.686" xmlns="http://www.w3.org/2000/svg" xmlns:cc="http://creativecommons.org/ns#" xmlns:dc="http://purl.org/dc/elements/1.1/" xmlns:osb="http://www.openswatchbook.org/uri/2009/osb" xmlns:rdf="http://www.w3.org/1999/02/22-rdf-syntax-ns#" xmlns:xlink="http://www.w3.org/1999/xlink">
 <defs>
  <linearGradient id="linearGradient9308" x1="-428.98" x2="-419.26" y1="113.27" y2="127.45" gradientTransform="matrix(.83333 0 0 .83333 482.67 33.753)" gradientUnits="userSpaceOnUse" xlink:href="#Clownfish-6"/>
  <linearGradient id="Clownfish-6">
   <stop stop-color="#f57119" offset="0"/>
   <stop stop-color="#ffd655" offset="1"/>
  </linearGradient>
  <linearGradient id="linearGradient9168" x1="-363.87" x2="-344.49" y1="163.69" y2="182.02" gradientTransform="matrix(.77267 0 0 .72707 405.27 6.7428)" gradientUnits="userSpaceOnUse" xlink:href="#Clownfish-6"/>
  <linearGradient id="linearGradient9190" x1="-386.58" x2="-357.56" y1="180.29" y2="176.19" gradientTransform="matrix(.83333 0 0 .83333 429.61 -10.923)" gradientUnits="userSpaceOnUse" xlink:href="#Clownfish-6"/>
 </defs>
 <metadata>
  <rdf:RDF>
   <cc:Work rdf:about="">
    <dc:format>image/svg+xml</dc:format>
    <dc:type rdf:resource="http://purl.org/dc/dcmitype/StillImage"/>
    <dc:title/>
   </cc:Work>
  </rdf:RDF>
 </metadata>
 <g transform="translate(-95.387 -119.39)">
  <g>
   <path d="m132.8 126.16c-1.6249-3.8207-1.758-7.2507-8.0599-6.7212-6.0051 0.50457-6.1557 5.7997-8.9745 4.6903-2.8188-1.1094-4.7438-2.5241-6.9881-0.69308-2.2443 1.831 0.53234 6.0405 0.53234 6.0405s25.115 0.50414 23.49-3.3166z"/>
   <path d="m120.95 140.41c-3.7886 2.3386-9.2373 5.016-12.693 0.81969-2.9421-3.6446 1.1814-5.8521 1.1814-5.8521z"/>
   <path d="m121.21 140.32c-3.7886 2.3386-8.1128 4.6191-11.568 0.42281-2.9421-3.6446 0.057-5.4552 0.057-5.4552z" fill="url(#linearGradient9190)"/>
   <path d="m102.26 131.31s-0.72099-4.1965-4.0383-3.8554c-3.5125 0.3611-4.2484 9.9952 0.58903 10.889 1.9764 0.36532 3.5024-5.713 3.5024-5.713z" fill="#2a1600"/>
   <path d="m136.83 127.56c-0.1427 0.18184-0.29581 0.36035-0.42427 0.54622-0.23468 0.33957-0.44609 0.68545-0.6351 1.0346-0.37801 0.69821-0.66727 1.4103-0.87695 2.1162s-0.34 1.4055-0.40049 2.0784c-0.0605 0.67291-0.0509 1.3189 0.0186 1.9182 0.0695 0.59934 0.19938 1.1519 0.37982 1.6371 0.18043 0.48517 0.4115 0.90316 0.68368 1.2335 0.0668 0.0811 0.14333 0.13955 0.21497 0.20981 3.3966-1.234 6.1414-2.9529 6.2125-5.257-0.10549-2.1999-2.3074-4.067-5.1728-5.517z" fill="url(#linearGradient9308)" style="paint-order:normal"/>
   <path d="m130.07 138.97s-6.1091 0.40349-6.7026 2.3363c-0.69186 2.2531 1.2169 6.0346 4.5922 4.3528 1.7989-0.89633 3.0738-5.7837 3.0738-5.7837z" fill="#2a1600"/>
   <path d="m133.64 126.21c-0.37082 0.8074-0.73616 1.6112-0.96221 2.3151-0.14904 0.46405-0.26853 0.90689-0.36174 1.3296-0.0932 0.42275-0.16007 0.82588-0.20309 1.2103-0.086 0.76877-0.0773 1.4636 4e-3 2.0965 0.0809 0.63288 0.23394 1.2035 0.43666 1.7239s0.45485 0.9907 0.73432 1.4221c0.27947 0.43144 0.58597 0.82424 0.8971 1.1901 0.34289 0.40321 0.63585 0.72964 0.95964 1.0831 0.22319-0.0749 0.43417-0.158 0.65215-0.23719-0.0716-0.0703-0.14814-0.1287-0.21497-0.20981-0.27218-0.33036-0.50325-0.74835-0.68368-1.2335-0.18044-0.48516-0.31028-1.0378-0.37982-1.6371-0.0696-0.59935-0.0791-1.2453-0.0186-1.9182 0.0605-0.67292 0.19081-1.3726 0.40049-2.0784s0.49894-1.4179 0.87695-2.1162c0.18901-0.34911 0.40042-0.69499 0.6351-1.0346 0.12846-0.18587 0.28157-0.36438 0.42427-0.54622-1.0044-0.50829-2.0898-0.9577-3.1962-1.3596z" fill="#fef6f0" style="paint-order:normal"/>
   <path d="m130.39 138.72s-3.9973-0.0626-5.508 1.3921c-2.1103 2.0321 1.5393 4.7117 3.5147 4.3029 1.3984-0.28943 2.8178-4.9202 2.8178-4.9202z" fill="#fd9f38"/>
   <path d="m132.88 126.7c-1.1412-2.6832-2.0583-4.6592-3.5625-5.1896-0.96859-0.34593-2.3162-0.57056-4.1924-0.41291-6.0051 0.50456-5.5816 3.0616-8.5324 3.4392-2.9507 0.37754-4.5654-0.97993-6.7058 0.35647s-0.16199 5.2358-0.16199 5.2358 24.78 0.39171 23.155-3.429z" fill="url(#linearGradient9168)"/>
   <g>
    <path d="m124.75 140.58c2.665-0.14762 6.7764-0.79109 10.393-2.0056-0.32378-0.3535-0.61675-0.67993-0.95963-1.0831-0.31113-0.36587-0.61763-0.75867-0.8971-1.1901-0.27948-0.43143-0.5316-0.9017-0.73432-1.4221-0.20273-0.52043-0.35579-1.091-0.43667-1.7239-0.0809-0.63287-0.0897-1.3277-4e-3 -2.0965 0.043-0.38438 0.10988-0.78751 0.20308-1.2103s0.21271-0.86559 0.36174-1.3296c0.22606-0.70389 0.5914-1.5077 0.96222-2.3151-4.1338-1.5017-8.5482-2.2433-10.032-2.0154-0.47211 0.0725-0.93297 0.19281-1.3999 0.29042 0.0505 0.0618 0.0769 0.13517 0.13694 0.19224 0.62482 0.59385 1.1899 1.1872 1.6924 1.7859 0.50253 0.59876 0.94241 1.203 1.3157 1.818 0.37328 0.61501 0.68019 1.241 0.91726 1.8836s0.40426 1.3018 0.49816 1.9833 0.11461 1.3853 0.0584 2.1172c-0.0562 0.73191-0.18927 1.4921-0.40256 2.2856-0.2133 0.79359-0.50686 1.6206-0.88419 2.4872-0.21448 0.49261-0.51933 1.0291-0.78858 1.5482z" fill="url(#linearGradient9308)" style="paint-order:normal"/>
    <path d="m102.34 137.23c0.22337-0.45681 0.45911-0.9605 0.65216-1.3529 0.16536-0.33611 0.31445-0.65828 0.43873-0.98443 0.12428-0.32616 0.22356-0.65605 0.28939-1.0067 0.0658-0.35061 0.0984-0.72223 0.0884-1.1317-0.01-0.40949-0.0627-0.85684-0.16588-1.3596-0.10321-0.50277-0.25698-1.0609-0.47077-1.6914-0.11568-0.34112-0.29659-0.76406-0.44856-1.1503-0.94452-0.40095-1.9068-0.77197-2.7693-0.91002-3.7938-0.60723-3.1311 10.643-0.91416 10.787 0.99888 0.065 2.155-0.5199 3.3001-1.2004z" fill="url(#linearGradient9308)" style="paint-order:normal"/>
    <path d="m108.97 135.65c0.13594-0.19244 0.25734-0.39019 0.35295-0.59686 0.10513-0.22725 0.18677-0.46299 0.24753-0.7059 0.12152-0.48582 0.15863-1.0012 0.13022-1.54-0.0284-0.53873-0.1225-1.1008-0.26406-1.6795-0.13672-0.55886-0.32113-1.1345-0.52969-1.7188-0.89533 0.36109-1.6785 0.63834-2.1962 0.678-0.64121 0.0491-2.2706-0.8106-3.9899-1.5405 0.15197 0.38626 0.33288 0.8092 0.44855 1.1503 0.2138 0.63048 0.36756 1.1886 0.47078 1.6914 0.10321 0.50277 0.15587 0.95012 0.16588 1.3596 0.01 0.40948-0.0225 0.7811-0.0884 1.1317-0.0658 0.35061-0.16511 0.6805-0.28939 1.0067-0.12428 0.32615-0.27337 0.64832-0.43873 0.98443-0.19305 0.39239-0.42879 0.89608-0.65216 1.3529 1.6438-0.97691 3.2644-2.1958 4.3599-2.3528 0.4498-0.0644 1.276 0.28562 2.2727 0.77928z" fill="#fff" style="paint-order:normal"/>
    <path d="m117.05 125.98c-3.2872 1.2098-6.1203 2.6184-8.1463 3.4354 0.20856 0.58422 0.39297 1.1599 0.52969 1.7188 0.14156 0.57867 0.23566 1.1408 0.26406 1.6795 0.0284 0.53874-9e-3 1.0541-0.13022 1.54-0.0608 0.24291-0.1424 0.47865-0.24753 0.7059-0.0956 0.20667-0.21701 0.40442-0.35295 0.59686 2.413 1.1951 6.1687 3.4704 10.491 4.4736-0.21377-0.32553-0.41414-0.64243-0.68006-1.0036-0.19973-0.27123-0.40236-0.55594-0.58963-0.86094-0.18727-0.30499-0.35927-0.6298-0.49816-0.98029-0.13889-0.35051-0.24462-0.72706-0.29921-1.1348-0.0546-0.40776-0.0579-0.84719 8e-3 -1.324 0.12829-0.93195 0.21008-1.8491 0.24702-2.7404 0.0369-0.89133 0.0289-1.7568-0.0217-2.5843s-0.14372-1.6169-0.27802-2.3575c-0.0758-0.41808-0.19456-0.77969-0.2961-1.1643z" fill="url(#linearGradient9308)" style="paint-order:normal"/>
    <path d="m116.19 124.42c0.10154 0.38458 1.0826 2.3065 1.1584 2.7246 0.1343 0.74055 0.22743 1.53 0.27802 2.3575 0.0506 0.82753 0.0586 1.693 0.0217 2.5843s-0.11873 1.8084-0.24702 2.7404c-0.0656 0.47676-0.0623 0.91619-8e-3 1.324 0.0546 0.40776 0.16032 0.78431 0.29921 1.1348 0.13889 0.35049 0.31089 0.6753 0.49816 0.98029 0.18727 0.305 0.3899 0.58971 0.58963 0.86094 0.26592 0.36112 0.46629 0.67802 0.68006 1.0036 1.2705 0.29487 2.5678 0.51573 3.9026 0.51573 0.36973 8e-3 0.90211-0.0341 1.387-0.061 0.26925-0.51908 0.57409-1.0556 0.78858-1.5482 0.37733-0.86662 0.67089-1.6936 0.88418-2.4872 0.2133-0.79359 0.34635-1.5537 0.40256-2.2856 0.0562-0.7319 0.0355-1.4356-0.0584-2.1172s-0.26109-1.3407-0.49816-1.9833-0.54398-1.2686-0.91726-1.8836-0.81315-1.2192-1.3157-1.818c-0.50253-0.59875-1.6453-1.7145-1.9388-2.525-0.0857-0.2367-0.85624-3.34-0.90678-3.4018-2.076 1.2008-3.5643 4.1382-4.9712 3.6672z" fill="#fff" style="paint-order:normal"/>
   </g>
  </g>
  <path d="m138.44 131.34c0 0.70633-0.50828 0.1696-1.2146 0.16961-0.70633-1e-5 -1.3432 0.53672-1.3432-0.16961s0.57259-1.2789 1.2789-1.2789c0.70633 0 1.2789 0.57259 1.2789 1.2789z" fill="#120c07" fill-opacity=".95814" style="paint-order:normal"/>
  <path d="m132.7 132.52s-4.642-3.992-6.4196-3.0286c-2.0722 1.123-0.61033 8.1101 1.7466 8.1113 2.0098 8.2e-4 4.7261-3.7617 4.7261-3.7617z" fill="#2a1600"/>
  <path d="m133.1 132.57s-4.3238-3.2764-5.8452-2.4518c-1.7735 0.96119-0.77961 7.4557 1.2376 7.4568 1.7202 7.1e-4 4.653-3.8744 4.653-3.8744z" fill="#fd9f38"/>
 </g>
</svg>
