<?xml version="1.0" encoding="UTF-8"?>
<!-- Created with Inkscape (http://www.inkscape.org/) -->
<svg width="56.8mm" height="33.352mm" version="1.1" viewBox="0 0 56.8 33.352" xmlns="http://www.w3.org/2000/svg" xmlns:cc="http://creativecommons.org/ns#" xmlns:dc="http://purl.org/dc/elements/1.1/" xmlns:osb="http://www.openswatchbook.org/uri/2009/osb" xmlns:rdf="http://www.w3.org/1999/02/22-rdf-syntax-ns#" xmlns:xlink="http://www.w3.org/1999/xlink">
 <defs>
  <linearGradient id="linearGradient8741-3" x1="-432.11" x2="-419.41" y1="120.1" y2="120.1" gradientTransform="translate(554.03 37.666)" gradientUnits="userSpaceOnUse" xlink:href="#linearGradient8939"/>
  <linearGradient id="linearGradient8939">
   <stop stop-color="#fc094d" offset="0"/>
   <stop stop-color="#fc0965" stop-opacity="0" offset="1"/>
  </linearGradient>
  <linearGradient id="linearGradient8722-5" x1="114.49" x2="89.386" y1="-100.37" y2="-77.567" gradientTransform="matrix(.26458 0 0 .26458 214.8 163.43)" gradientUnits="userSpaceOnUse" xlink:href="#linearGradient8939"/>
  <linearGradient id="linearGradient8629-1" x1="-432.79" x2="-431.08" y1="112.24" y2="125.63" gradientTransform="translate(553.72 38.031)" gradientUnits="userSpaceOnUse">
   <stop stop-color="#e9428f" offset="0"/>
   <stop stop-color="#ffd555" offset="1"/>
  </linearGradient>
  <radialGradient id="radialGradient8653-7" cx="-464.22" cy="119.25" r="7.3932" gradientTransform="matrix(.90405 1.0702 -1.2001 1.0138 652.74 532.72)" gradientUnits="userSpaceOnUse">
   <stop stop-color="#f255ff" stop-opacity=".37647" offset="0"/>
   <stop stop-color="#ff40a0" offset="1"/>
  </radialGradient>
 </defs>
 <metadata>
  <rdf:RDF>
   <cc:Work rdf:about="">
    <dc:format>image/svg+xml</dc:format>
    <dc:type rdf:resource="http://purl.org/dc/dcmitype/StillImage"/>
    <dc:title/>
   </cc:Work>
  </rdf:RDF>
 </metadata>
 <g transform="translate(-88.005 -135.76)">
  <g>
   <path d="m102.39 153.87s-17.273-11.924-13.969-7.7486c2.1656 2.7371 3.1007 15.934-0.21825 22.755-0.988 2.0304 14.515-9.8222 14.515-9.8222z" fill="url(#radialGradient8653-7)"/>
   <path d="m132.68 148.46c-2.103-5.2549-8.5167-11.738-16.649-12.697 3.1958 2.1121 7.1883 3.0677 9.3607 6.6197-5.8532-3.6993-13.771 3.6522-24.409 6.7653 0.12046 2.8625 3.354 4.0026 3.354 4.0026s30.446 0.56472 28.343-4.6902z" fill="#de2785"/>
   <path d="m127.49 165.86s-22.305 3.2338-25.61-0.23024c-3.5305-4.3735 2.9259-6.705 2.9259-6.705z" fill="#eea117"/>
   <path d="m144.81 157.26c0 2.7573-10.382 9.0335-22.255 9.0335-9.3023 0-18.141-5.992-20-6.9226-3.9555-1.3068-3.2783-4.8572 0.0162-5.7402 2.5969-1.1954 11.172-7.0807 20.276-7.0807 11.873 0 21.962 7.9526 21.962 10.71z" fill="url(#linearGradient8629-1)" style="paint-order:normal"/>
   <path d="m138.92 155.13-6.7855 5.3741" fill="url(#linearGradient8722-5)" stroke="url(#linearGradient8722-5)" stroke-linecap="round" stroke-opacity=".95814" stroke-width="2"/>
  </g>
  <path d="m140.17 155.46c0 0.8476-0.60994 0.20352-1.4575 0.20353-0.8476-1e-5 -1.6119 0.64407-1.6119-0.20353s0.68711-1.5347 1.5347-1.5347 1.5347 0.68711 1.5347 1.5347z" fill="#120c07" fill-opacity=".95814" style="paint-order:normal"/>
  <path d="m133.94 157.23s-9.1423-2.2504-11.275-1.0943c-2.4866 1.3476 1.8076 4.0964 4.6359 4.0979 2.4118 1e-3 6.7032-1.4184 6.7032-1.4184z" fill="url(#linearGradient8741-3)"/>
 </g>
</svg>
