<?xml version="1.0" encoding="UTF-8"?>
<!-- Created with Inkscape (http://www.inkscape.org/) -->
<svg width="56.8mm" height="24.144mm" version="1.1" viewBox="0 0 56.8 24.144" xmlns="http://www.w3.org/2000/svg" xmlns:cc="http://creativecommons.org/ns#" xmlns:dc="http://purl.org/dc/elements/1.1/" xmlns:osb="http://www.openswatchbook.org/uri/2009/osb" xmlns:rdf="http://www.w3.org/1999/02/22-rdf-syntax-ns#" xmlns:xlink="http://www.w3.org/1999/xlink">
 <defs>
  <linearGradient id="linearGradient8741" x1="-432.11" x2="-419.41" y1="120.1" y2="120.1" gradientTransform="translate(587.06 59.09)" gradientUnits="userSpaceOnUse" xlink:href="#linearGradient8739"/>
  <linearGradient id="linearGradient8739">
   <stop stop-color="#fce209" offset="0"/>
   <stop stop-color="#fce209" stop-opacity="0" offset="1"/>
  </linearGradient>
  <linearGradient id="linearGradient8722" x1="-415.63" x2="-422.83" y1="118.04" y2="122.67" gradientTransform="translate(587.32 59.42)" gradientUnits="userSpaceOnUse" xlink:href="#linearGradient8739"/>
  <linearGradient id="linearGradient8730" x1="-415.63" x2="-422.83" y1="118.04" y2="122.67" gradientTransform="translate(587.32 59.42)" gradientUnits="userSpaceOnUse">
   <stop stop-color="#fd2fb9" offset="0"/>
   <stop stop-color="#fd2fb9" stop-opacity="0" offset="1"/>
  </linearGradient>
  <linearGradient id="linearGradient8629" x1="-431.2" x2="-433.47" y1="114.89" y2="127.31" gradientTransform="translate(586.75 59.454)" gradientUnits="userSpaceOnUse">
   <stop stop-color="#fc9409" offset="0"/>
   <stop stop-color="#f1e88b" stop-opacity=".95814" offset="1"/>
  </linearGradient>
  <radialGradient id="radialGradient8653" cx="-464.22" cy="119.25" r="7.3932" gradientTransform="matrix(.90405 1.0702 -1.2001 1.0138 685.77 554.15)" gradientUnits="userSpaceOnUse">
   <stop stop-color="#fffd55" stop-opacity=".37674" offset="0"/>
   <stop stop-color="#ffdf55" offset="1"/>
  </radialGradient>
 </defs>
 <metadata>
  <rdf:RDF>
   <cc:Work rdf:about="">
    <dc:format>image/svg+xml</dc:format>
    <dc:type rdf:resource="http://purl.org/dc/dcmitype/StillImage"/>
    <dc:title/>
   </cc:Work>
  </rdf:RDF>
 </metadata>
 <g transform="translate(-121.04 -166.39)">
  <g>
   <path d="m135.42 175.29s-17.273-11.924-13.969-7.7486c2.1656 2.7371 3.1007 15.934-0.21825 22.755-0.988 2.0304 14.515-9.8222 14.515-9.8222z" fill="url(#radialGradient8653)"/>
   <path d="m160.14 168.38s-17.57-4.379-28.283-0.15431c-5.118 2.4883 5.5056 6.3412 5.5056 6.3412z" fill="#fcb609"/>
   <path d="m160.52 187.28s-22.305 3.2338-25.61-0.23024c-3.5305-4.3735 2.9259-6.705 2.9259-6.705z" fill="#fce209"/>
   <path d="m177.84 178.69c0 2.7573-10.382 9.0335-22.255 9.0335-9.3023 0-18.141-5.992-20-6.9226-3.9555-1.3068-3.2783-4.8572 0.0162-5.7402 2.5969-1.1954 11.172-7.0807 20.276-7.0807 11.873 0 21.962 7.9526 21.962 10.71z" fill="url(#linearGradient8629)" style="paint-order:normal"/>
   <path d="m171.95 176.56-6.7855 5.3741" fill="url(#linearGradient8722)" stroke="url(#linearGradient8730)" stroke-linecap="round" stroke-opacity=".95814" stroke-width="2"/>
  </g>
  <path d="m173.2 176.88c0 0.8476-0.60994 0.20352-1.4575 0.20353-0.8476-1e-5 -1.6119 0.64407-1.6119-0.20353s0.68711-1.5347 1.5347-1.5347 1.5347 0.68711 1.5347 1.5347z" fill="#120c07" fill-opacity=".95814" style="paint-order:normal"/>
  <path d="m166.97 178.65s-9.1423-2.2504-11.275-1.0943c-2.4866 1.3476 1.8076 4.0964 4.6359 4.0979 2.4118 1e-3 6.7032-1.4184 6.7032-1.4184z" fill="url(#linearGradient8741)"/>
 </g>
</svg>
