<?xml version="1.0" encoding="UTF-8"?>
<!-- Created with Inkscape (http://www.inkscape.org/) -->
<svg width="36.62mm" height="36.02mm" version="1.1" viewBox="0 0 36.62 36.02" xmlns="http://www.w3.org/2000/svg" xmlns:cc="http://creativecommons.org/ns#" xmlns:dc="http://purl.org/dc/elements/1.1/" xmlns:osb="http://www.openswatchbook.org/uri/2009/osb" xmlns:rdf="http://www.w3.org/1999/02/22-rdf-syntax-ns#">
 <defs>
  <linearGradient id="linearGradient1771" gradientTransform="matrix(.0041956 0 0 .0078269 144.59 215.08)" osb:paint="solid">
   <stop stop-color="#f5f0e7" offset="0"/>
  </linearGradient>
 </defs>
 <metadata>
  <rdf:RDF>
   <cc:Work rdf:about="">
    <dc:format>image/svg+xml</dc:format>
    <dc:type rdf:resource="http://purl.org/dc/dcmitype/StillImage"/>
    <dc:title/>
   </cc:Work>
  </rdf:RDF>
 </metadata>
 <g transform="translate(-122.45 -178.91)">
  <rect x="122.45" y="178.31" width="36.62" height="36.62" ry="0" fill="#de6b33" style="paint-order:stroke fill markers"/>
  <path d="m128.89 203.52c0 1.3337 0.58771 2.5166 1.5069 3.3454v2.6824c0 0.8288 0.67813 1.5069 1.5069 1.5069h1.507c0.83635 0 1.5069-0.67814 1.5069-1.5069v-1.507h12.056v1.507c0 0.8288 0.67059 1.5069 1.507 1.5069h1.5069c0.82882 0 1.5069-0.67814 1.5069-1.5069v-2.6824c0.91923-0.8288 1.507-2.0117 1.507-3.3454v-15.069c0-5.2743-5.3948-6.0278-12.056-6.0278s-12.056 0.75347-12.056 6.0278zm5.2743 1.507c-1.2508 0-2.2604-1.0096-2.2604-2.2604 0-1.2508 1.0097-2.2604 2.2604-2.2604s2.2604 1.0096 2.2604 2.2604c0 1.2508-1.0096 2.2604-2.2604 2.2604zm13.562 0c-1.2508 0-2.2604-1.0096-2.2604-2.2604 0-1.2508 1.0096-2.2604 2.2604-2.2604 1.2508 0 2.2604 1.0096 2.2604 2.2604 0 1.2508-1.0096 2.2604-2.2604 2.2604zm2.2604-9.0416h-18.083v-7.5347h18.083z" fill="url(#linearGradient1771)" stroke-width=".75347"/>
  <path d="m126.36 213.58h27.627c1.7657 0 3.1873-1.5368 3.1873-3.4458v-30.638c-4.8443 5.4668-22.46 24.257-30.814 34.084z" fill="#de6b33" fill-opacity=".19608" style="paint-order:markers fill stroke"/>
 </g>
</svg>
