<?xml version="1.0" encoding="UTF-8"?>
<!-- Created with Inkscape (http://www.inkscape.org/) -->
<svg width="36.62mm" height="36.02mm" version="1.1" viewBox="0 0 36.62 36.02" xmlns="http://www.w3.org/2000/svg" xmlns:cc="http://creativecommons.org/ns#" xmlns:dc="http://purl.org/dc/elements/1.1/" xmlns:osb="http://www.openswatchbook.org/uri/2009/osb" xmlns:rdf="http://www.w3.org/1999/02/22-rdf-syntax-ns#">
 <defs>
  <linearGradient id="linearGradient1771" gradientTransform="matrix(.0011101 0 0 .0020709 192.35 271.87)" osb:paint="solid">
   <stop stop-color="#f5f0e7" offset="0"/>
  </linearGradient>
 </defs>
 <metadata>
  <rdf:RDF>
   <cc:Work rdf:about="">
    <dc:format>image/svg+xml</dc:format>
    <dc:type rdf:resource="http://purl.org/dc/dcmitype/StillImage"/>
    <dc:title/>
   </cc:Work>
  </rdf:RDF>
 </metadata>
 <g transform="translate(-154.09 -215.56)">
  <rect x="154.09" y="214.96" width="36.62" height="36.62" rx="0" ry="0" fill="#dda02b" style="paint-order:stroke fill markers"/>
  <path d="m156.24 248.52h29.053c1.8569 0 3.3517-1.3386 3.3517-3.0013v-26.686c-5.0943 4.7616-23.619 21.128-32.404 29.687z" fill="#e9a625" fill-opacity=".19608" style="paint-order:markers fill stroke"/>
  <path d="m176.97 225.53c1.3978 0 2.5414-1.1436 2.5414-2.5414 0-1.3978-1.1436-2.5414-2.5414-2.5414-1.3977 0-2.5414 1.1436-2.5414 2.5414 0 1.3977 1.1436 2.5414 2.5414 2.5414zm-13.342 8.2594c-3.4943 0-6.3534 2.859-6.3534 6.3534 0 3.4944 2.859 6.3534 6.3534 6.3534 3.4944 0 6.3534-2.859 6.3534-6.3534 0-3.4944-2.859-6.3534-6.3534-6.3534zm0 10.801c-2.4778 0-4.4474-1.9696-4.4474-4.4474 0-2.4778 1.9696-4.4474 4.4474-4.4474 2.4778 0 4.4474 1.9696 4.4474 4.4474 0 2.4778-1.9696 4.4474-4.4474 4.4474zm7.3699-12.643 2.9861-3.0496 0.95302 0.95302c1.5884 1.6519 3.812 2.6049 6.4169 2.6049v-2.5414c-1.906 0-3.4944-0.69887-4.638-1.8425l-2.4778-2.4143c-0.38121-0.44474-1.0166-0.7624-1.7154-0.7624s-1.3342 0.25412-1.7789 0.7624l-3.4944 3.4943c-0.44474 0.44474-0.76241 1.0801-0.76241 1.779 0 0.69887 0.31767 1.3342 0.76241 1.8425l4.0026 3.5579v6.3534h2.5414v-7.9417zm10.42 1.8425c-3.4944 0-6.3534 2.859-6.3534 6.3534 0 3.4944 2.859 6.3534 6.3534 6.3534 3.4944 0 6.3534-2.859 6.3534-6.3534 0-3.4944-2.859-6.3534-6.3534-6.3534zm0 10.801c-2.4778 0-4.4474-1.9696-4.4474-4.4474 0-2.4778 1.9696-4.4474 4.4474-4.4474 2.4778 0 4.4474 1.9696 4.4474 4.4474 0 2.4778-1.9696 4.4474-4.4474 4.4474z" clip-path="url(#b-5)" fill="url(#linearGradient1771)" stroke-width=".63534"/>
  <path d="m157.05 247.51h29.053c1.8569 0 3.3517-1.3386 3.3517-3.0013v-26.686c-5.0943 4.7616-23.619 21.128-32.404 29.687z" fill="#e9a625" fill-opacity=".19608" style="paint-order:markers fill stroke"/>
 </g>
</svg>
