<?xml version="1.0" encoding="UTF-8"?>
<!-- Created with Inkscape (http://www.inkscape.org/) -->
<svg width="36.62mm" height="36.02mm" version="1.1" viewBox="0 0 36.62 36.02" xmlns="http://www.w3.org/2000/svg" xmlns:cc="http://creativecommons.org/ns#" xmlns:dc="http://purl.org/dc/elements/1.1/" xmlns:rdf="http://www.w3.org/1999/02/22-rdf-syntax-ns#">
 <metadata>
  <rdf:RDF>
   <cc:Work rdf:about="">
    <dc:format>image/svg+xml</dc:format>
    <dc:type rdf:resource="http://purl.org/dc/dcmitype/StillImage"/>
    <dc:title/>
   </cc:Work>
  </rdf:RDF>
 </metadata>
 <g transform="translate(-14.818 -15.65)">
  <g transform="translate(-68.594 20.868)">
   <rect x="83.411" y="-5.8171" width="36.62" height="36.62" rx="0" ry="0" fill="#dd832b" style="paint-order:stroke fill markers"/>
   <circle transform="rotate(13.622)" cx="102.9" cy="-24.485" r="3.2906" fill="#f6f3e6" style="paint-order:stroke fill markers"/>
   <g fill="none" stroke="#f6f3e6" stroke-linecap="round" stroke-linejoin="round">
    <path d="m104.54 5.7431-3.4593 10.065 5.5246 2.6379 1.4733 8.1545" stroke-width="2.8105"/>
    <path d="m104.78 5.546 2.3225 7.2043 4.6897 0.21044" stroke-width="2.3421"/>
    <path d="m103.31 5.3161-7.2113 2.2252-0.16151 6.103" stroke-width="2.3421"/>
    <path d="m103.82 5.5679-4.4908 10.227-2.2823 6.2304-5.4066 2.8471" stroke-width="2.8105"/>
   </g>
   <path d="m92.589 29.442 16.373-1.5875c0.96163-0.09324 6.9938-2.238 6.7048-4.0633l-4.0349-25.492c-2.6506 5.2921-14.472 21.63-19.043 31.143z" fill="#dd832b" fill-opacity=".19608" style="paint-order:markers fill stroke"/>
  </g>
 </g>
</svg>
