<?xml version="1.0" encoding="UTF-8"?>
<!-- Created with Inkscape (http://www.inkscape.org/) -->
<svg width="36.62mm" height="36.185mm" version="1.1" viewBox="0 0 36.62 36.185" xmlns="http://www.w3.org/2000/svg" xmlns:cc="http://creativecommons.org/ns#" xmlns:dc="http://purl.org/dc/elements/1.1/" xmlns:osb="http://www.openswatchbook.org/uri/2009/osb" xmlns:rdf="http://www.w3.org/1999/02/22-rdf-syntax-ns#" xmlns:xlink="http://www.w3.org/1999/xlink">
 <defs>
  <linearGradient id="linearGradient1779-2" x1="-54.261" x2="-39.468" y1="-.47024" y2="-.47024" gradientTransform="translate(-104.86 46.515)" gradientUnits="userSpaceOnUse">
   <stop stop-color="#fff" offset="0"/>
  </linearGradient>
 </defs>
 <metadata>
  <rdf:RDF>
   <cc:Work rdf:about="">
    <dc:format>image/svg+xml</dc:format>
    <dc:type rdf:resource="http://purl.org/dc/dcmitype/StillImage"/>
    <dc:title/>
   </cc:Work>
  </rdf:RDF>
 </metadata>
 <g transform="translate(-70.014 -116.12)">
  <g>
   <rect x="81.641" y="115.52" width=".16536" height=".066146" fill="#67ad9e" style="paint-order:markers fill stroke"/>
   <rect x="70.014" y="115.69" width="36.62" height="36.62" ry="0" fill="#de6b33" style="paint-order:stroke fill markers"/>
   <rect transform="matrix(-.79264 -.60969 -.60969 .79264 0 0)" x="-159.21" y="50.934" width="14.792" height="17.034" ry="2.9576" fill="#f5f0e7" style="paint-order:markers fill stroke"/>
   <rect transform="matrix(-.79264 -.60969 -.60969 .79264 0 0)" x="-159.12" y="40.414" width="14.792" height="11.262" ry="3.0837" fill="url(#linearGradient1779-2)" style="paint-order:markers fill stroke"/>
   <rect transform="matrix(-.79264 -.60969 -.60969 .79264 0 0)" x="-155.73" y="36.442" width="7.7787" height="3.3122" ry="1.0288" fill="#fff" style="paint-order:markers fill stroke"/>
   <rect transform="matrix(-.79264 -.60969 -.60969 .79264 0 0)" x="-155.73" y="37.646" width="7.7787" height="2.1078" ry="0" fill="#f5f0e7" style="paint-order:markers fill stroke"/>
  </g>
  <path d="m72.674 151.56h27.627c1.7657 0 3.1873-1.5368 3.1873-3.4458v-30.638c-4.8443 5.4668-22.46 24.257-30.814 34.084z" fill="#de6b33" fill-opacity=".19608" style="paint-order:markers fill stroke"/>
 </g>
</svg>
