<?xml version="1.0" encoding="UTF-8"?>
<!-- Created with Inkscape (http://www.inkscape.org/) -->
<svg width="30.517mm" height="30.517mm" version="1.1" viewBox="0 0 30.517 30.517" xmlns="http://www.w3.org/2000/svg" xmlns:cc="http://creativecommons.org/ns#" xmlns:dc="http://purl.org/dc/elements/1.1/" xmlns:osb="http://www.openswatchbook.org/uri/2009/osb" xmlns:rdf="http://www.w3.org/1999/02/22-rdf-syntax-ns#" xmlns:xlink="http://www.w3.org/1999/xlink">
 <defs>
  <linearGradient id="linearGradient1771" gradientTransform="matrix(.00012254 0 0 .0002286 304.51 264.27)" osb:paint="solid">
   <stop stop-color="#f5f0e7" offset="0"/>
  </linearGradient>
  <linearGradient id="linearGradient1765" gradientTransform="matrix(.059541 0 0 .059541 475.26 458.19)" osb:paint="solid">
   <stop stop-color="#d75e23" offset="0"/>
  </linearGradient>
  <linearGradient id="linearGradient1767" x1="83.411" x2="120.03" y1="12.493" y2="12.493" gradientTransform="matrix(.83333 0 0 .83333 83.81 127.08)" gradientUnits="userSpaceOnUse" xlink:href="#linearGradient1765"/>
 </defs>
 <metadata>
  <rdf:RDF>
   <cc:Work rdf:about="">
    <dc:format>image/svg+xml</dc:format>
    <dc:type rdf:resource="http://purl.org/dc/dcmitype/StillImage"/>
    <dc:title/>
   </cc:Work>
  </rdf:RDF>
 </metadata>
 <g transform="translate(-153.32 -122.24)">
  <rect x="153.32" y="122.24" width="30.517" height="30.517" rx="0" ry="0" fill="url(#linearGradient1767)" style="paint-order:stroke fill markers"/>
  <path d="m161.33 151.13 13.644-1.3229c0.80136-0.0777 5.8281-1.865 5.5874-3.3861l-3.3624-21.243c-2.2088 4.4101-12.06 18.025-15.869 25.952z" fill="#de6b33" fill-opacity=".19608" style="paint-order:markers fill stroke"/>
  <path d="m156.54 141.65c0 1.0098 0.445 1.9055 1.141 2.533v2.031c0 0.62755 0.51346 1.141 1.141 1.141h1.141c0.63326 0 1.141-0.51348 1.141-1.141v-1.141h9.1281v1.141c0 0.62755 0.50775 1.141 1.141 1.141h1.141c0.62756 0 1.141-0.51348 1.141-1.141v-2.031c0.69603-0.62755 1.141-1.5232 1.141-2.533v-11.41c0-3.9936-4.0848-4.5641-9.1282-4.5641s-9.1282 0.57051-9.1282 4.5641zm3.9936 1.141c-0.94704 0-1.7115-0.76448-1.7115-1.7115 0-0.94706 0.76449-1.7115 1.7115-1.7115 0.94705 0 1.7115 0.76447 1.7115 1.7115 0 0.94704-0.76448 1.7115-1.7115 1.7115zm10.269 0c-0.94705 0-1.7115-0.76448-1.7115-1.7115 0-0.94706 0.76447-1.7115 1.7115-1.7115 0.94703 0 1.7115 0.76447 1.7115 1.7115 0 0.94704-0.76449 1.7115-1.7115 1.7115zm1.7115-6.8461h-13.692v-5.7051h13.692z" fill="url(#linearGradient1771)" stroke-width=".57051"/>
  <g>
   <rect x="166.2" y="133.02" width="10.03" height="15.754" fill="url(#linearGradient1765)" stroke="url(#linearGradient1765)" stroke-width=".889" style="paint-order:normal"/>
   <path d="m180.78 132.54c-0.22837-0.65721-0.85217-1.1251-1.5818-1.1251h-12.253c-0.72961 0-1.3534 0.46786-1.5818 1.1251l-2.317 6.6724v8.9114c0 0.61268 0.50127 1.1139 1.1139 1.1139h1.1139c0.61823 0 1.1139-0.50125 1.1139-1.1139v-1.1139h13.367v1.1139c0 0.61268 0.50126 1.1139 1.1139 1.1139h1.1139c0.61823 0 1.1139-0.50125 1.1139-1.1139v-8.9114zm-13.835 11.128c-0.92455 0-1.6709-0.74633-1.6709-1.6709 0-0.92458 0.74634-1.6709 1.6709-1.6709 0.92456 0 1.6709 0.74632 1.6709 1.6709 0 0.92455-0.74634 1.6709-1.6709 1.6709zm12.253 0c-0.92455 0-1.6709-0.74633-1.6709-1.6709 0-0.92458 0.74634-1.6709 1.6709-1.6709 0.92456 0 1.6709 0.74632 1.6709 1.6709 0 0.92455-0.74634 1.6709-1.6709 1.6709zm-13.924-5.5696 1.6709-5.0127h12.253l1.6709 5.0127z" fill="url(#linearGradient1765)" stroke="url(#linearGradient1765)" stroke-width=".55696"/>
   <path d="m178.44 133.7c-0.18646-0.5366-0.69578-0.9186-1.2915-0.9186h-10.005c-0.59572 0-1.105 0.382-1.2915 0.9186l-1.8918 5.4479v7.276c0 0.50024 0.40928 0.90951 0.9095 0.90951h0.9095c0.50478 0 0.90951-0.40927 0.90951-0.90951v-0.90949h10.914v0.90949c0 0.50024 0.40926 0.90951 0.9095 0.90951h0.9095c0.50477 0 0.9095-0.40927 0.9095-0.90951v-7.276zm-11.296 9.0859c-0.75489 0-1.3643-0.60937-1.3643-1.3642 0-0.7549 0.60937-1.3643 1.3643-1.3643s1.3642 0.60936 1.3642 1.3643c0 0.75488-0.60936 1.3642-1.3642 1.3642zm10.005 0c-0.75488 0-1.3642-0.60937-1.3642-1.3642 0-0.7549 0.60937-1.3643 1.3642-1.3643 0.75489 0 1.3643 0.60936 1.3643 1.3643 0 0.75488-0.60937 1.3642-1.3643 1.3642zm-11.369-4.5475 1.3643-4.0928h10.005l1.3643 4.0928z" fill="url(#linearGradient1771)" stroke-width=".45475"/>
  </g>
  <path d="m158.29 150.44 17.168-1.3674c1.0083-0.0803 7.3334-1.9277 7.0304-3.4998l-4.2308-21.957c-2.7793 4.5583-15.175 18.631-19.968 26.824z" fill="#de6b33" fill-opacity=".19608" style="paint-order:markers fill stroke"/>
 </g>
</svg>
