<?xml version="1.0" encoding="UTF-8"?>
<!-- Created with Inkscape (http://www.inkscape.org/) -->
<svg width="36.62mm" height="36.02mm" version="1.1" viewBox="0 0 36.62 36.02" xmlns="http://www.w3.org/2000/svg" xmlns:cc="http://creativecommons.org/ns#" xmlns:dc="http://purl.org/dc/elements/1.1/" xmlns:osb="http://www.openswatchbook.org/uri/2009/osb" xmlns:rdf="http://www.w3.org/1999/02/22-rdf-syntax-ns#">
 <defs>
  <linearGradient id="linearGradient1771" gradientTransform="matrix(.015857 0 0 .029582 83.68 138.97)" osb:paint="solid">
   <stop stop-color="#f5f0e7" offset="0"/>
  </linearGradient>
 </defs>
 <metadata>
  <rdf:RDF>
   <cc:Work rdf:about="">
    <dc:format>image/svg+xml</dc:format>
    <dc:type rdf:resource="http://purl.org/dc/dcmitype/StillImage"/>
    <dc:title/>
   </cc:Work>
  </rdf:RDF>
 </metadata>
 <g transform="translate(-96.231 -152.75)">
  <rect x="96.231" y="152.15" width="36.62" height="36.62" ry="0" fill="#de5533" style="paint-order:stroke fill markers"/>
  <path d="m99.863 185.44h27.207c1.7389 0 3.1389-1.2964 3.1389-2.9067v-25.845c-4.7708 4.6116-22.119 20.463-30.346 28.752z" fill="#de5533" fill-opacity=".19608" style="paint-order:markers fill stroke"/>
  <path d="m125.32 159.62c-0.31426-0.90445-1.1727-1.5483-2.1768-1.5483h-16.863c-1.0041 0-1.8626 0.64385-2.1768 1.5483l-3.1886 9.1824v12.264c0 0.84315 0.68984 1.533 1.533 1.533h1.533c0.8508 0 1.533-0.68982 1.533-1.533v-1.5329h18.396v1.5329c0 0.84315 0.68983 1.533 1.533 1.533h1.533c0.85079 0 1.533-0.68982 1.533-1.533v-12.264zm-19.039 15.314c-1.2724 0-2.2994-1.0271-2.2994-2.2994 0-1.2724 1.0271-2.2994 2.2994-2.2994s2.2994 1.0271 2.2994 2.2994c0 1.2724-1.0271 2.2994-2.2994 2.2994zm16.863 0c-1.2724 0-2.2994-1.0271-2.2994-2.2994 0-1.2724 1.0271-2.2994 2.2994-2.2994 1.2724 0 2.2994 1.0271 2.2994 2.2994 0 1.2724-1.0271 2.2994-2.2994 2.2994zm-19.162-7.6648 2.2994-6.8983h16.863l2.2994 6.8983z" fill="url(#linearGradient1771)" stroke-width=".76648"/>
  <path d="m99.66 184.66h27.207c1.7389 0 3.1389-1.2964 3.1389-2.9067v-25.845c-4.7708 4.6116-22.119 20.463-30.346 28.752z" fill="#de5533" fill-opacity=".19608" style="paint-order:markers fill stroke"/>
 </g>
</svg>
