<?xml version="1.0" encoding="UTF-8"?>
<!-- Created with Inkscape (http://www.inkscape.org/) -->
<svg width="36.62mm" height="36.02mm" version="1.1" viewBox="0 0 36.62 36.02" xmlns="http://www.w3.org/2000/svg" xmlns:cc="http://creativecommons.org/ns#" xmlns:dc="http://purl.org/dc/elements/1.1/" xmlns:osb="http://www.openswatchbook.org/uri/2009/osb" xmlns:rdf="http://www.w3.org/1999/02/22-rdf-syntax-ns#">
 <defs>
  <linearGradient id="linearGradient1771" gradientTransform="matrix(.059933 0 0 .11181 -47.438 -49.792)" osb:paint="solid">
   <stop stop-color="#f5f0e7" offset="0"/>
  </linearGradient>
  <linearGradient id="linearGradient1746" gradientTransform="matrix(.26458 0 0 .26458 83.427 -5.1536)" osb:paint="solid">
   <stop stop-color="#dda02b" offset="0"/>
  </linearGradient>
 </defs>
 <metadata>
  <rdf:RDF>
   <cc:Work rdf:about="">
    <dc:format>image/svg+xml</dc:format>
    <dc:type rdf:resource="http://purl.org/dc/dcmitype/StillImage"/>
    <dc:title/>
   </cc:Work>
  </rdf:RDF>
 </metadata>
 <g transform="translate(-61.361 -93.522)">
  <rect x="61.361" y="92.922" width="36.62" height="36.62" rx="0" ry="0" fill="#dda02b" style="paint-order:stroke fill markers"/>
  <g transform="matrix(.91472 .7371 -.73471 .91176 10.925 -87.439)" fill="url(#linearGradient1771)">
   <path d="m150 80.522h3.8087c1.0236 0 1.302 0.02874 1.302 0.02874l0.5457 8.5953c0.1345 2.1185-1.8888 2.0574-2.4675 3.4614l-2.464-0.14032c-0.54258-1.169-2.6824-1.5642-2.5727-3.3211l0.53788-8.6121s0.28622-0.01194 1.3099-0.01194z" style="paint-order:normal"/>
   <g stroke="url(#linearGradient1746)" stroke-linecap="round" stroke-width="1.1">
    <path d="m149.98 79.509-1.2e-4 7.9492"/>
    <path d="m151.86 79.754 5e-3 7.8914"/>
    <path d="m153.78 79.66 0.0439 7.7771"/>
   </g>
   <path d="m151.89 89.276c1.0169 0 1.203 1.1894 1.2509 2.5805l0.58465 16.992c0.0479 1.3911-0.81866 2.513-1.8356 2.513s-1.8905-1.1222-1.8356-2.513l0.6782-17.154c0.055-1.3908 0.14046-2.4185 1.1574-2.4185z" style="paint-order:normal"/>
  </g>
  <path d="m63.507 126.48h29.053c1.8569 0 3.3517-1.3386 3.3517-3.0013v-26.686c-5.0943 4.7616-23.619 21.128-32.404 29.687z" fill="#e9a625" fill-opacity=".19608" style="paint-order:markers fill stroke"/>
 </g>
</svg>
