<?xml version="1.0" encoding="UTF-8"?>
<!-- Created with Inkscape (http://www.inkscape.org/) -->
<svg width="36.62mm" height="36.02mm" version="1.1" viewBox="0 0 36.62 36.02" xmlns="http://www.w3.org/2000/svg" xmlns:cc="http://creativecommons.org/ns#" xmlns:dc="http://purl.org/dc/elements/1.1/" xmlns:rdf="http://www.w3.org/1999/02/22-rdf-syntax-ns#">
 <metadata>
  <rdf:RDF>
   <cc:Work rdf:about="">
    <dc:format>image/svg+xml</dc:format>
    <dc:type rdf:resource="http://purl.org/dc/dcmitype/StillImage"/>
    <dc:title/>
   </cc:Work>
  </rdf:RDF>
 </metadata>
 <g transform="translate(11.724 -7.9552)">
  <g transform="translate(-148.88 16.782)">
   <g>
    <rect transform="translate(1.2708e-6)" x="137.16" y="-9.4266" width="36.62" height="36.62" ry="0" fill="#e9a625" style="paint-order:stroke fill markers"/>
    <path d="m153.57-2.8028s5.7748-2.3491 9.1839 0.52324c3.4091 2.8724 8.7638-0.26861 9.0552 0.51262 0.14568 0.39061 0.21159 0.46345-2.0856 6.7742-2.36 6.4835-2.422 6.2298-2.6576 6.3129-0.23567 0.08305-8.0095 2.3235-9.2963-0.45564-0.78376-1.6927-8.9428-0.58022-8.9428-0.58022z" fill="#f5f3e7" style="paint-order:stroke fill markers"/>
    <rect transform="matrix(.97474 -.22336 -.342 .9397 0 0)" x="168.05" y="35.966" width="1.8941" height="26.941" ry=".46772" fill="#f5f0e7" style="paint-order:stroke fill markers"/>
   </g>
   <path d="m140.53 21.155h29.053c1.8569 0 3.3517-1.3386 3.3517-3.0013v-26.686c-5.0943 4.7616-23.619 21.128-32.404 29.687z" fill="#e9a625" fill-opacity=".19608" style="paint-order:markers fill stroke"/>
  </g>
 </g>
</svg>
